#Unknown ASF file
:ROOT_YZX
:FOOT_3DOF
:FULLY-SPECIFIED
:DEGREES
1079
root -0.239968 17.8973 -8.87647 -2.36875 -34.8508 -6.22324
lfemur -22.3384 -0.592485 -15.5204
ltibia 33.1729
lfoot -5.10409 0 -1.91796
ltoes -11.332
rfemur 6.52274 -1.27225 26.23
rtibia 41.0963
rfoot 1.83695 0 -0.46424
rtoes -20.4265
lowerback 10.0686 3.47648 3.689
upperback 1.59077 5.11756 3.11359
thorax -3.93753 2.48651 0.495597
lowerneck -15.9662 -5.47565 -16.0989
upperneck 23.75 -5.97703 9.7982
head 11.1364 -3.0775 5.4317
lclavicle 1.04933e-013 2.10712e-014
lhumerus -46.4201 18.0161 77.6987
lradius 23.4638
lwrist -5.65173
lhand -11.1792 29.691
lfingers 7.12502
lthumb 14.8479 59.139
rclavicle 1.04933e-013 2.10712e-014
rhumerus -23.4474 -7.83409 -76.7624
rradius 39.1808
rwrist -4.57786
rhand -22.6244 13.4425
rfingers 7.12502
rthumb 3.80579 -16.5033
1080
root -0.469205 17.8927 -8.30899 -2.88793 -34.4127 -4.364
lfemur -20.0366 -0.944571 -18.535
ltibia 34.1637
lfoot -6.86435 0 -1.75565
ltoes -15.0861
rfemur 2.10502 -2.89259 22.3659
rtibia 50.5243
rfoot 13.6943 0 -2.98935
rtoes 5.05136
lowerback 10.084 3.21358 1.81582
upperback 1.40597 4.57008 2.7768
thorax -4.26494 2.24094 1.24797
lowerneck -15.2201 -4.7517 -16.6711
upperneck 23.5571 -5.06586 10.3835
head 10.8076 -2.66401 5.88972
lclavicle -2.46245e-014 -2.3059e-014
lhumerus -46.7429 15.8724 79.6979
lradius 25.3092
lwrist -3.82954
lhand -9.49108 30.2007
lfingers 7.12502
lthumb 16.4737 59.5213
rclavicle -2.46245e-014 -2.3059e-014
rhumerus -25.5012 -6.7297 -77.4419
rradius 39.9489
rwrist -4.31241
rhand -21.3521 13.5834
rfingers 7.12502
rthumb 5.0344 -16.3368
1081
root -0.683163 17.8229 -7.80248 -3.74646 -33.492 -3.27902
lfemur -17.8774 -1.89193 -20.3187
ltibia 35.5162
lfoot -9.14342 0 -1.83284
ltoes -10.7633
rfemur -2.51375 -4.6651 19.9222
rtibia 59.4428
rfoot 21.0644 0 -4.60445
rtoes 5.15478
lowerback 10.8153 2.81997 0.842807
upperback 1.73834 3.92969 2.41527
thorax -4.35449 1.93483 1.47593
lowerneck -16.1561 -4.45013 -16.1503
upperneck 23.338 -4.53534 10.1596
head 10.8023 -2.3686 5.78301
lclavicle 4.91992e-015 5.56597e-015
lhumerus -45.5294 13.3381 81.5979
lradius 27.3669
lwrist -2.83568
lhand -7.74699 31.0489
lfingers 7.12502
lthumb 18.1523 60.2218
rclavicle 4.91992e-015 5.56597e-015
rhumerus -26.1014 -7.42144 -78.4589
rradius 39.7492
rwrist -2.57414
rhand -21.3742 14.0143
rfingers 7.12502
rthumb 5.01305 -15.9064
1082
root -0.892267 17.7415 -7.30511 -4.76613 -32.885 -1.78557
lfemur -15.3664 -1.97642 -22.6926
ltibia 36.882
lfoot -11.7146 0 -1.69266
ltoes -15.1715
rfemur -6.76114 -5.86973 17.1128
rtibia 67.3792
rfoot 20.8463 0 -8.37259
rtoes 2.03455
lowerback 11.7381 2.55252 -0.926115
upperback 2.00917 3.36155 2.35014
thorax -4.666 1.67809 2.4537
lowerneck -16.9658 -4.25901 -15.7716
upperneck 23.5334 -3.92972 9.00973
head 10.9121 -2.17549 5.37412
lclavicle -2.38542e-014 4.77083e-015
lhumerus -43.7703 11.2833 83.5244
lradius 28.3279
lwrist -1.72476
lhand -8.26941 29.329
lfingers 7.12502
lthumb 17.6496 58.5479
rclavicle -2.38542e-014 4.77083e-015
rhumerus -27.8925 -5.88394 -79.0596
rradius 40.7689
rwrist -2.62167
rhand -21.2671 14.5614
rfingers 7.12502
rthumb 5.11648 -15.3568
1083
root -1.10031 17.6711 -6.82607 -5.41425 -32.3862 -1.06155
lfemur -13.2532 -2.22942 -24.0668
ltibia 37.8348
lfoot -14.0233 0 -1.83425
ltoes -11.5216
rfemur -11.1781 -6.92754 15.7509
rtibia 73.3946
rfoot 12.9478 0 -8.20597
rtoes 1.18399
lowerback 11.8167 2.46345 -1.49996
upperback 2.49491 3.15276 2.19842
thorax -4.21097 1.57262 2.65879
lowerneck -17.431 -3.92305 -15.1034
upperneck 23.2999 -3.41226 8.4793
head 10.816 -1.92285 5.12833
lclavicle -8.4235e-015 -2.78299e-015
lhumerus -40.4302 10.0687 84.3394
lradius 27.9276
lwrist -3.49137
lhand -9.20497 29.1657
lfingers 7.12502
lthumb 16.7491 58.4632
rclavicle -8.4235e-015 -2.78299e-015
rhumerus -28.789 -7.17095 -79.3888
rradius 39.9785
rwrist -1.62081
rhand -21.9011 15.2549
rfingers 7.12502
rthumb 4.50423 -14.6772
1084
root -1.29916 17.6201 -6.35268 -5.71883 -31.4172 0.167266
lfemur -10.8208 -3.41639 -26.1369
ltibia 37.765
lfoot -15.5616 0 -1.10239
ltoes -11.0395
rfemur -15.4722 -7.45065 14.1523
rtibia 76.3071
rfoot 3.65042 0 -7.06002
rtoes -0.626104
lowerback 11.7137 2.12364 -2.67397
upperback 2.49653 2.55231 1.97738
thorax -4.15581 1.28857 3.18832
lowerneck -17.0173 -3.52248 -15.2335
upperneck 23.5964 -2.92021 8.59035
head 10.7793 -1.71498 5.27349
lclavicle -8.11041e-014 2.50469e-014
lhumerus -38.0245 10.9058 83.8519
lradius 27.6208
lwrist -6.01732
lhand -10.1768 29.1321
lfingers 7.12502
lthumb 15.8134 58.5062
rclavicle -8.11041e-014 2.50469e-014
rhumerus -30.5021 -7.55656 -79.6478
rradius 38.5039
rwrist -1.47569
rhand -22.0441 14.8864
rfingers 7.12502
rthumb 4.36621 -15.0486
1085
root -1.49284 17.599 -5.91506 -5.89004 -29.7857 1.06753
lfemur -8.37569 -4.11459 -27.6715
ltibia 36.9713
lfoot -16.5529 0 -1.27842
ltoes -11.4707
rfemur -19.084 -7.33881 13.38
rtibia 75.8618
rfoot -2.08563 0 -7.12369
rtoes 8.03115
lowerback 11.7167 1.67595 -3.32343
upperback 2.51794 1.86527 1.63694
thorax -4.08974 0.95344 3.30632
lowerneck -17.0494 -3.32034 -14.9936
upperneck 24.131 -2.7204 8.5856
head 10.9491 -1.61956 5.27988
lclavicle -1.2101e-014 3.18055e-015
lhumerus -35.3839 10.7342 83.5695
lradius 27.7847
lwrist -5.2635
lhand -12.9464 28.8511
lfingers 7.12502
lthumb 13.1448 58.4167
rclavicle -1.2101e-014 3.18055e-015
rhumerus -31.6803 -9.89835 -79.4227
rradius 35.1425
rwrist 0.0306502
rhand -22.1797 14.0745
rfingers 7.12502
rthumb 4.23524 -15.8631
1086
root -1.69378 17.6053 -5.49479 -5.82468 -28.8555 1.73781
lfemur -6.20222 -4.45183 -28.6955
ltibia 35.8269
lfoot -17.112 0 -2.22583
ltoes -13.5514
rfemur -22.6705 -6.12688 13.5877
rtibia 72.1402
rfoot -7.10213 0 -6.10938
rtoes -3.70249
lowerback 11.8389 1.46336 -4.16143
upperback 2.23396 1.47786 1.63724
thorax -4.4426 0.785712 3.83904
lowerneck -17.0471 -3.05675 -15.0408
upperneck 24.9494 -2.35562 8.5442
head 11.2039 -1.49119 5.3565
lclavicle 8.32411e-014 -1.19271e-014
lhumerus -33.5282 10.3579 83.6717
lradius 29.2064
lwrist -2.83822
lhand -13.1658 29.5489
lfingers 7.12502
lthumb 12.9334 59.1281
rclavicle 8.32411e-014 -1.19271e-014
rhumerus -33.2222 -12.357 -77.9851
rradius 30.7907
rwrist 3.55948
rhand -21.6095 12.988
rfingers 7.12502
rthumb 4.78584 -16.938
1087
root -1.89216 17.6525 -5.08864 -5.3913 -26.8765 2.20617
lfemur -4.12921 -5.52136 -29.3711
ltibia 34.0289
lfoot -16.9376 0 -3.86897
ltoes -6.1311
rfemur -25.1624 -5.22142 13.7944
rtibia 65.3616
rfoot -9.03351 0 -7.23545
rtoes -2.72303
lowerback 11.7725 0.773108 -4.7033
upperback 1.84516 0.497277 1.62841
thorax -4.7212 0.326243 4.29367
lowerneck -17.1249 -2.63324 -14.5246
upperneck 25.2166 -1.74696 7.98784
head 11.2244 -1.24015 5.15356
lclavicle 5.70512e-014 -1.94809e-014
lhumerus -32.2377 9.73067 83.6629
lradius 31.605
lwrist -0.903276
lhand -13.104 29.6388
lfingers 7.12502
lthumb 12.9929 59.2142
rclavicle 5.70512e-014 -1.94809e-014
rhumerus -34.8219 -13.7875 -76.7857
rradius 26.8511
rwrist 6.50826
rhand -19.4253 17.1402
rfingers 7.12502
rthumb 6.89466 -12.7275
1088
root -2.08579 17.7142 -4.66931 -4.85023 -25.1458 2.83024
lfemur -1.65177 -5.79234 -30.2704
ltibia 31.5316
lfoot -16.7139 0 -4.55375
ltoes -11.7043
rfemur -26.4814 -3.7256 13.4172
rtibia 56.2352
rfoot -10.0169 0 -8.42599
rtoes -8.01683
lowerback 11.6786 0.397135 -5.36615
upperback 1.63418 -0.0855576 1.54293
thorax -4.82601 0.0582513 4.67298
lowerneck -18.4311 -2.5341 -13.6672
upperneck 25.9262 -1.50289 7.36764
head 11.7099 -1.12675 4.84427
lclavicle 4.84041e-014 1.35174e-014
lhumerus -30.5346 7.70922 84.0803
lradius 34.4595
lwrist 1.93099
lhand -12.3829 30.3546
lfingers 7.12502
lthumb 13.688 59.8845
rclavicle 4.84041e-014 1.35174e-014
rhumerus -36.3424 -14.6066 -75.9664
rradius 24.155
rwrist 7.76126
rhand -19.0822 18.5208
rfingers 7.12502
rthumb 7.22576 -11.3358
